<mxfile host="app.diagrams.net" agent="Mozilla/5.0 (Windows NT 10.0; Win64; x64) AppleWebKit/537.36 (KHTML, like Gecko) Chrome/129.0.0.0 Safari/537.36" version="24.7.17">
  <diagram name="Page-1" id="_4WDy55IUXdRLYKb1e2k">
    <mxGraphModel dx="1050" dy="565" grid="1" gridSize="10" guides="1" tooltips="1" connect="1" arrows="1" fold="1" page="1" pageScale="1" pageWidth="850" pageHeight="1100" math="0" shadow="0">
      <root>
        <mxCell id="0" />
        <mxCell id="1" parent="0" />
        <UserObject label="" plantUmlData="{&#xa;  &quot;data&quot;: &quot;@startuml\n!define RECTANGLE class\n!define DATABASE database\n\nrectangle \&quot;External Users\&quot; as Users\n\nRECTANGLE \&quot;Repository Management\&quot; as RepoManagement\nRECTANGLE \&quot;Issues Management\&quot; as IssuesManagement\nRECTANGLE \&quot;Pull Requests Management\&quot; as PRManagement\nRECTANGLE \&quot;User Management\&quot; as UserManagement\nRECTANGLE \&quot;Notification System\&quot; as NotificationSystem\n\nDATABASE \&quot;Database\&quot; as DB\n\nUsers --&gt; RepoManagement : Interacts with\nUsers --&gt; IssuesManagement : Creates/Updates Issues\nUsers --&gt; PRManagement : Submits Pull Requests\nUsers --&gt; UserManagement : Registers &amp; Logs In\nUsers --&gt; NotificationSystem : Receives Notifications\n\nRepoManagement --&gt; DB : Stores/Retrieves Repository Data\nIssuesManagement --&gt; DB : Stores/Retrieves Issues\nPRManagement --&gt; DB : Stores/Retrieves Pull Requests\nUserManagement --&gt; DB : Stores/Retrieves User Data\n\nDB --&gt; Users : Provides Repository Data\nDB --&gt; Users : Provides Issue Data\nDB --&gt; Users : Provides Pull Request Data\nDB --&gt; Users : Provides User Data\n\nNotificationSystem --&gt; Users : Sends Updates/Notifications\nNotificationSystem --&gt; DB : Updates Notification Status\n\n@enduml\n&quot;,&#xa;  &quot;format&quot;: &quot;png&quot;&#xa;}" id="Akr4LibtkkoBYeWgR6f4-1">
          <mxCell style="shape=image;noLabel=1;verticalAlign=top;aspect=fixed;imageAspect=0;image=data:image/png,iVBORw0KGgoAAAANSUhEUgAAAYkAAADDCAIAAAD4C3pUAAAAKnRFWHRjb3B5bGVmdABHZW5lcmF0ZWQgYnkgaHR0cHM6Ly9wbGFudHVtbC5jb212zsofAAACKWlUWHRwbGFudHVtbAABAAAAeJztlE1z2jAQhu/6FVsOnfZAQgiT6fiQ4cM0EwopY0Puir1QzRiZSjIt/z4rYUDmI0POyQlm9bzSviv5bWvDlSkWGfuS4kxIhKjfm3SeHoZ9SDKu9a4ediadbifuQ8oNf+EaGVOYGC7nGUKt/9+gkjyDqUala8D15h9j+/1qES5zLUyu1jDiks9xgdI41q7sS77mUesC9SG/qZ5WjIssow3/EmCOhOPotMg2e8ja2mn6KTdiJhJuRC4hXmuDC6fw65syY7u51cJycA4Nu4y5CUG9fn/gHwJ4lDRPnpCBf8L88chD58T2FHKD+nq6TO1viXga3zTxcfGyELRzZVAeXvVNggjngszQ8lcY5nM6QXr4sWknSVCssDoS+xqqRq0+7Nqe6FWQhQiNEmh13luxc2NHvs9LS/8V1+fp4ylcJHMPxnXGCNiOTRM6VvlKpCcsnONcv28jfpNvk15fJy7Gl8QoU+I3j+a6ek9npG4U22dW/QgMN4VmbdrThglr73LlspRwWfOOhCj5C9OhpC9PhlJwQSqU5HsSYRugn4nwmQgfJxHGGZdmOhrCig6zwM1Vs9FsXbW+xdxAZ6mgcQc3reD2Nmg24GE0Abv8nQ34ikNUSCMWGMDvJcpB+GtbgL5cCZVL9ykOnkd74K5V7wpDlhSdB88jFuKMF5khRZKnQs6p7cnP+g82pGwq6HYDQMl6Oe2r1rQWs1cQnRcQ3P/zFQAAIIBJREFUeF7tnQtwXUd5x/cc2ZZt2ZIly7Zs2bL8kC3LlnxlTcojlIRCCVB3EqbQkJqWAgUCocQw6SS0TUNpQ+jwCNOGFKYB0yZAh1dK0zRAShMSUtKUliRtCcOjSVpoYNLWgaExZbDVb8+eu3fP7v+ce650r6R79f/Nzp093/n222+fZ8+V9q4a6u9ShBBCCCGEEEIIIYQQQgghhBBCCCGEENI2rNikhi6PbOjeW7u1+Q1aEnXXJCUxNm1C99LG08hKJCyRY13NtUdq5erekwr7nq8ve55WpKNKGFfldAghc6f/xdH0D+N9d0QSDn093npVZOTxGiWXU/8ZZ9VLITbdhO6ljUtk8t+rwhfVhGVyjNep4T8o0lxzWB34p7RQlZPx8NW6UDIljf9dPPFgvPMGPadAHVXCuCqnQwiZF9vfGe35VDost78r2vPJNJ7eurl2OfjqdImx6bWpsPe8aMMFvlAFCbe/o3Zp46Ijc9+aKbX6gBr7XE3oJoTIvDDyvmj6VFygqQtiC/VuXShxdeZ0vOWN0Ybzo5nZuO/no1BHInFPfeNldAgh82X/3fHuT0T9F+qgR+9v1Mab3Bq6Ir3sOxod+ma6yjj4UGzegPbfFU8+GssUo5ceT8TyirRqhxI7sjaRoS7jP7VzVzz0Zj8uxmWO2Po70e6P68nCZKRzrGrmIdOZzGXj9xZpjv5ZtOk10epx7Ywp1P4vaH0jmXggHvrNKNSRxdTWKyPxocB4GR1CyHyJVqjp/42nvhNPPqyDLB/itdVbXfrW+p9Jhl+kKv8T7/jDdAqTd8D1z4q0wg/jA/8Qd/XXlGVtJbOVzDVic/fHdFrXjo2bfEVNhzP60wrTHAvRmk/W0ZTl2Pjfp4XqWq9d3fx6vVAy7pm0no682e18v66BPOPif10dQkgTWFtRsmSQt6QQfetM3NWr47K4kPG872+jsdsiGcySREaySSuRVPl0qrxmMmNzzWHnVjWu9c3ENBsPvFQvW1KD1RyLWTtdR3PNITV+XyxvXunlYZ3dwa9piXYvSevrTGmdwVdF8t6nX/qOgnmnjA4hpAnIS428f/nSBFkBHfzX9JbEJ/5Fx1cOqR1/FE38s47rtEkkjScKWvmVNbm+zNoxcVffxiViNYvxNGXq2XB+tO7p6aW8S8rEse0ttYlD8hXJ/nti8X/s9kgmqVCn/0WRWTzKymj6VLzt9/QtzzLUIYQ0n9EPRjtv8AeYvLD0PEXt+WQ09plIIvJCN/x2/X2NxOW1Tt5ldn5AJ9Fpk4gXl1cemZtMQn15Q3opYfzeWDSNvom4aSVicjShq8/czxD6Juz7vJ5oRq6vOnBDNPbZmp1VO7REFHb+SST+S2T0hC61p2Nxy+JZtrg6hJDmIwsWWVN4wg0v1APSBPNn8hUD6SuYrFYmHkiTuGnduFG2f1+3aSXs+nBNX9Y+XlwiVlNC95i5nyH0TcWq8gN9ufFlNYOuHXkFE+H6Z+mEdrUFdeyttCyBZaBDCCGEEEIIIYQQQgghhBBCCCGEEEIIIYQQQgghhBBCCCGEEEIIIYQQQgghhBBCCCGEEEJKk55Yu8qXe7iH4pqw9qzco26X1Cm4rXZG7O/+WLT1qmj9s/BvY3bqWcp5eAnhccrmyGVXksec3ZgPee2yKM60jqYUpwV1FeuT2lYM4MN1e5+jj3Jz2fTa9ChgeyzwpteBhAZoc7FotTNif2Y23ndnvOECPDe141nKqhFNF+8MZH2c8j/6xyn3PFWfOWiEq0bd1IC5uTEfCtpl4Z1pKfMvTkvqatvv65Rdffpw3b23+Kf1Tn1XnwGlAsuZ03El4V/5CYXVE+rw4/Hkf9QSh0cEh/SeF9lDlmx84Jei/ffEJu3+L8Ybf0UL844XhrmUcSbPYEiYVpU4nbjtzlJW5eotJDyE2R6hbONSogNfiTcfzzVisNmNvLfmcOgD7DZQE5KnltcurjNlgPah0KN8ufI0Q8K0eUM41CzIpVl1pVn3TLXp4mji/lgWXSo5XFf6ysQD+uF28GvpEb69z42mvh1v+91oxeZMWn0S7+VpfhL3jvk1yAwy/aQ+StdcDr4qkl6ePjlFrZKqeegTgKunCtv4+Jf04QImrUTMKcTh8cIqPxfgzH87aklaaDAkTAuPNQ5pu7OUFaw3VL0e4SHMsmiS4JZ9/xdqtdHztGz6Kroq/k1nJ5lKSY3nefVTK3hymLMq7W3YoBa/XQJnygDdKMjUJbdcQVp9t9pMVjMEOgOHcKO5NKWuNOuermRWmnw4XjWiL83RuzINdW2oHp97bq1XeUeSpCfxJt+qmITeMb+p2kolT871z07VxIg8S2Wyk0uZpHvOsvZqiOUjP47HPhOt3Ka2/rYeSOKG8Wf47c7xwudmjxeungxckEvGGeckYTdteF5xzbMqMK08IuSlacY51jikXc9SbrwRDe4hzBI386MUXPqYRFbv1SVKa+PRWO56D7+ahaQfynpTey5dDtaP1yF/WKczuMAGTW+59QmdKQF0oyBTF1wulDa9W20mo+lZM7eAM2gIN5pLU+oqZe+t0a6bnO8pnZN+ZYJ0T+jt3qW/4rUH4WqF6eBo3+CYX315xDmGN9ZzjfRLeX/cclnknl7pIqUaeIkuzLqzdSWundESY8cMaRO844W7x5Q8P3U8PxfXmYz/1XhBQVxgWh3PVlqIW8Me7snGS+4s5cYb0eAewizOHPlJHPfU4j1PrXkupbB3XdwqNSUVz3H9TGvhhhfq7/vlJTGthHLe5jWovnRqCTpTCuRGQaYusFwwrW5uW9tTtW7gA51BvavRXJpTVwYZ/LJOG7go6t6tLze9Jjr8PT0X6PjF6Qm9MnPJo0mmsNEPZdrVP9oXHfNrLu3BcNKlZLqVKj70jeRR/1jwDVYVWaCJgqz27cnD8q5rszB2tNDJ11KQi+uMLaAbLyiIC0zrxSHaZpufpVxQvSFuQmlTW3YTt8XUklfimrFVmlZFoo/r52LdZyYf0eNNnt5GoaS3BY3o1id0RiXnMMoY6X0OnvhUjhsFmbrAcsG01lV579n21tzGxc6g3tVoLmXqqgFk0ql8P950ia7W0Q/q5fHIdfrMW1npbX+HXr8NvkJPsbs+6td73tG+Np4ew/sp54jgayJ5czan6e69Jdr+Tt+mZcWgOvJ/sZRt1fZUIm9z++5M0+76cLT9XanD4RG7MJfQmdETejAYtfH76pxX7AHTGnleEoO22Y5nKTfeiGGhrJ8S9t+jHdMHLFcd2P/F1FUP2+5uVcD6UUmmh76l19SSb6pZzlvYoGERoDPChvP1pffwdoFuwEwhYblgWtv0clcmHVifKs8Z1LvK51K+rhpjyxv1379UcmKtzEFm5W+O4ZWFnF5pV78TcXGPt4Xx8BheeMwvROYm0ZFKrEnctB/x83KBuYTOyFuxlRz8avqNGyxICEwryEMjL4kB2gx9W8pnKUP7IWUSmlYuNgWrAgrj1ekkK0EGg6dZkIXKadCCIrj5Ct17lX7AX5xrH7oBMw2B5YJpM+45Le4BnYG9q3wu5euKkGVH3wtqw0PCmsO+QuuQNYUsGbr6fXlTWMRyEUIIIYQQQgghzSHdkldvr2+LyNsQmCdf+hTswp0nK+ptKp4PeX6G8lDSFKBZKPTI22talzLG85hzpuWB7kHh3Jh/EZroTJYG9/q2CJh7gXwB6HmqyvvH/zIU7MKtS3HW/fU2Fc+HPD9DeShpCtAsFLoU7DWtS13jecwn0/JA96BwDjSlCM1yxmcOe30Hq7v4+n4uVbOSuntTQ01VuKHUbhRsaLuvB9ygKJHBV+n/d5e0ox+Ken4qvbv3L7Vkz6ejQ9/Q/wJqhDAXWJbQcxUUEBqEWUO8TZXQmkLuiaa+fJ3e75JXXXnbPsO9waEbYX0q5IbQ/4ta0vs83wdRPvSteOSPM3JXmJeLCvwJ882rqLAgsLfAqgurxaPkYIHGjbJbIbB3QYPitvcJy66CIoTW6grnspu3mLnt9bW7+Ma/FO/96yjuydkTeFfO7sFgn6EKNpTCjYLlt/uGwA2KEjF/mjUG0x2w99QkEjb+cm4ucMcp9FwFBYQGYdYeeft7Q2t5jSItKxOf3MqrrnDbZ5hpKNEJUX3mtbjZCbjlTZkyauX/0jsNC4Qwl/RWs/ZLw96SU3VupiHlBws07pUd9i5sMClC5jMou8UtArQGKxM60xzmttfXvbVmSonH8drcPYH+7kG0z9Dgb8QNNgoaYZntvqlFB7hBMfXK7KKs7qiUiGS38/2R3ndW3aCIc8nbcRp4nvqQ3TELKgdlHTIYbCqG7rm14TWKvKSLJ9IEsLqMP3U3FYcSXJ85LS7GpYtLcDffysuFKA+8JOOSJ4S5ZG6ZEsHWQdWOCwJ7C6q6TKYBDQ2W0LhfdtS7ihr6PF3w9PNn9Sfcx+5eQmu4MpEzxmATmNteX++WlqA9gXD3INxnmBo5UmejoFEotd03AG5QTLcmJns1rNvSTjuujY78WL98Df6abgB9F+WCd5wizw2ZAqLKgVlDvCaA7hU0yvpz9KcsmU2+HtA3VS2O2+6eBNZnQYuHwC2vePOtl4t7K/EWt065ouX2FlR1bqYhDQ0WYNwrIOpd0KApgjZlP8921Jyyp5e2ZyJruDKRM01jbnt93R2AUmxxC+4JhLsH4T5Dq1O8UXBT6e2+IYNog6Iu7+N+eYVdH9VrYCm1ycJohrkM5uw4DT03ZAqIKkehrCHe1lDoXm6jPKh3V5jdBq57ljzfvE3FoQTWZ16Ly2N86PJI+p65lCl162/pX5uT3p+ayxHCXAy2lU0ctE65ouX1Flh1bqYqmdc2nB/JG4mhgcGSNY7LjnoXNGi8cj/zym6VPQtuHFcmcqaZzGGvr7vt9sBX4v4XR3BPINw9CPcZgg2laKNg+e2+IXCDol/exBnpWDPJbwxJkBW42VwOc4E7TqHnYQFh5cCsId6mYuhebqPcoPf9yiVMleoEvqlgU3EogfUJW1zY93ld2JHrq8Y/oC/Nvk4LFMJc4F7TsHVKFi2vt3hVF2aqgnI1MFiyxmHZYe+CBk0Rxu+Nxz6rf95vNNnsHZY9LAK0BisTOtNkGt3r6+4VHMzfEziBdg/CfYYlNwpm0n7Et1wM3KAoroodz5lDX49H/zTdHD/1ndj8SQLmUuykKwwLCCsHZg0xD0N7Cd0raBT300tldcK4KZr7d2JPAusTtrhK9qDJu2f/L9QyMo3iAoUwl7CGYUOULBrsLWHVhZnKC2zlB/py48tA8U12JdsFlh0WCho0mmOf07dMLcGyh0UosOblC4WkCcjbtbxjr5ny5fKct22z+Q2t2sAJWcSs509efTaXhcmFEEIIIYQQQgghhBBCCCGEEEIIIYQsNqMn9P+nMjB0cPA7PWkL7P/4MTB0avA7PWkLwoZkYOiw4Hd60haEDcnA0GHB7/SkLXCbcOjN0ebjOhz6pt+6bRHE/7HP1HaiNStMn4qlTsbvq0m2v0PXUphXixzwguRu97gWh50fSBt0AbxaysHv9KQtcJuwa4P+nZpVo2r8Xn1ppyoTtr11cfp3+QGvf2TnLaU0Gwpb3hSJ5d2fqFnue4H+0fQwryY6sOfmTOW784vOXakydTL46khaE7q6rILf6Ulb4DahN7TsVGXCumcszgtg+QHfc5Yaua6Upglidt/f1NeHDkBhow4UBHkS2JoP5xeYe15oSLkjg9/pSVvgNmE4N4V9WlYxO65Nn+T2zcK89XhCu+yybxYFbyLQggmeG9CBGfSeBTXdjKT4YQG9IEZWDoMZJ6ycOThQUCFe8LKTSbBrfamlU5h2GQa/05O2wG3CMnOTCA36YV59szC/lpk+4avC2rIr+VUq91YYoIXdf65/VTperdafqyOTj+Q6MIPes6Cml1Hv87A/rpGwEqC8pAMDL804sOcvgHEvDCVne3jZhQ7khfKanRrSZiDthduE4dxkJgUTrFCCOXvH6rsJQ2EYCYN7a82U2vGeZBgf01/0KBnyq5NMv5jrQGgkTxO6WhDydKC8FQ7kqUEhDOU1OzX4nZ60BW4ThkPLTAomhDr26xU43goiYVgzqVYM6qlw6IrIW0qEXoUOhLe8S+hDgT/QSF15SQfsjC/VGxrxAlw0uQbrhvKanRr8Tk/aArcJC4ZWeWE4C4SRMFS+r+9qkg0GZokUGg8v3VCgaeNmEtyWTA2SUfhFUrHNYnkZB7qyM/7w230jxTbrysNQXrNTg9vhSdvgNmHB0CovdAdhXiQM5qiG0FrdSzcUaNp45YlMTzUvXAVBEvYdjQ58GchDN8o44ArdUucFmJE58COUwwAtLKvgtjhpG9wmLBhaxcJ4jV4C7HhPJEFVx0w4GmFaE1YOJYdbVS24qwlrfOrbuQ7svUUnFM3e5+lIqGnjO67V9ruSNYvQ/yLfVBi8HGFeUAgdcEva1TfHdRMU5oWGlDsyZHo8aRfcJuyqfhVi/yIW9mkodBcjG3/VH41hJAzQgnfLLDGgkQ0XZPaah5rQB2gqDPIKJkzcX5QXFMK8CkoKQ+ikOVS5jOf2D51llDs41BqGtBFuE67amS4o3K97Oix4S7y6/0MwU/0urPz/IrU6rPtptel1pZwxf+jsKvGtVmcHv9OTtiBsyM4O3vdNy3xBsUyC2+KkbQgbkoGhw4Lf6UlbEDYkA0OHBb/Tk7YgbEgGhg4LfqcnbcHAsYiBobOD3+kJIYQQQgghhBBCCCGEEEIIIYQQQgghhBBCCCGEEEIIIYQQQgghhBBCCCGEEEIIIYQQQhBbLot2XBv1nscfMyRkeTD8Nj3mBy6qP+ZFcz5TwzyT7701mjkdb71q7hYIIe1B1K1kqM/MxpMP6x9+X3+Or+BROTmvqWGeyVUzLBBC2oCR9+qJafSDet105EfpsI9XK7k0wVtMeVMD1JTF0ebjvtDgJXeXUTZuFnESBl8BjHBuImRZYIb6yHXpCbdm2JtLWUmZxZSZMvovjOTu9Kl43x06smqnTj58dUbTLLvEprFWN7k70di4RCRom4/6RrwkhJCOxQx1Mx3Yr3Lc8T/xQLz5Uh3fdZNWmzkTy/wikXVn67uTj8RDl/uzhrG27pkZIUzuZuQmz4t4cUJIx2KGuvspwokH48OP6wXO8DXRhvMzE4E3NQxdEY3drtdBW5M1UTiVjN8Xb7qkpu8lh5NOQcSLE0I6FjPUZVqR9yY7uXT1arl+LzujP80ax9W3l0ahYpZdZ8BU4sG5iRBSiqnv6ilp86/r6UmGvXlBk0/7B7uC2cS9HDiG100eeck3XBBNP+knDyOhBUJIZ5Iukc7oL5Uk9DxFC6ceiyUYiSyL7DdKgswgoi/ylcMZTbPICqcSDy+5vTTfnedNSSbSd1T7I0nGbtMRY4EQ0sno6cmZHbr6lLmUMHoiM8vYW2ZhZS8PPqRnmbpzU0PJvciem9MpzLVACCGEEEIIIYQQQgghhBBCCCGEEEIIIYQQQgghhBBCCCGEEEIIIYQQQgghhBBCCCGEEEIIIYQsa+BxwaQkrD1CctlymT5qfM6jwv3B8oIfL18KzLOkraCNao+QOjT96br31sgeMjwH4OgSJ2UWsGHrlXWMN71QkJIlXci1DKy9VrCQhSLLlKb0YLGw/tk1I/OxCUdXJTngc/LhNOy/O86kCZiPAw1RJiNYohaxYHktWEakLZHn1ebj6VJi4KK0c8SrlV1fQKGEmomgY8HkdTOyJ1AZytjMA3Z62PsLHt1lHICFgkKY3AAd84AlgjahsCGXYF4QaAEKITAjmBwKGyoUaT8q1ZPpZCkhn2Zw7rpRzxRmfSGRDedr4fDVGeHmS7Ww/8Joa3Jk+b47dGTVTm3T0zQHycGMRq7LaI7dhkeIynGpIeAwg8MDFgo6AAsFhbBOvHwLgH56tVfQdtAlmLwhYKHKm12ahSJLhUryprPumWnc9A/YaVyhPLImHtDvRLtuinQXOaMPLtd2ztZ3Jx+pHQXsJi+ZUd1L71ZJJJWZa0wwwokH48OP6x68YqM+xXPTJVoOCwUdyCtUKIR1Ai8hebnXCvJA+rTI0wxdgskbAhaqvNk8V8PkeZqtKBRZKrhtOX5fOjgrzjCW8Rm2uod3a+iKaOz2ouSwJ3lGwsvQpYYQC2auMcEI0yPXZ+O9t0YT92e+gSrjgKvj1l5YKFgnnk4B0KaZWMWr4Wsiu5As7ydM3hCwUOXNLs1CkaUCHBiV7DA2z0aoafBuyYpDRrtJK/GwJ3kd0fQ5u2zxdOxl6FJDQP+jbv0dvHk1cN8oVaAPHYA2YUlhnYT6eUCbdmI1xu36rqSfMHlDwEKVN7s0C0WWCrCBXaH0A/uFkRXKS5C7WvaM2MuBY/gpV+uIffpNygazPvd0wkvrUkPAkm4+riemkeujnrPUzOl47UztVhkHoE1YUlgnoX4e0KZbD2FGrgLMAiZvCFio8maXZqHIUgG239RjsQSZfSRUnkgfU65w352x+b7JMP2kfpqJfOVwJrl5fIXdy8bN1FAxD97ZePfHtbDvqM5CbMpCJrTputQQkoUxaMLGl+d6ZcgrlOsArD1oE9YJLCnEOmMseDaNMGymYj9h8oaAhSpvdmkWiiwVYAO7y5nRE+ldb40D9c0jy14efEh3voK5CQr33Jy+ZEGbrksNUan+WceEyYd1EaADhrxCuQ7A2oM2YZ3AkkJg7uWF0E+o2RCwUOXNQs3ywhYVihCN9+T0vvEhhJDFwX3KzWT/95IQQgghhBBCCCGEEEIIIYQQQgghhBBCCCGEEEIIIYQQQgghhBBCCCGEEEIIIYQQQkj7UHCyLmlT2KakhWy5TJ/avAC9Cv669gLD8dNclkKbko5l763RzOmF6FWwH8tkYU+1X4ApEo6fBZiwOmN9EXoO27QVtKKfdGqjdBQt7VUW2I8ryalQ6an2rZ8i7amwLgtQfFj2JiIG1z+7yTZDQs9bXS5LK/pJq51frEZpP+LVyn3yuLe84rmaAxel8vLCPGBXgEJoVp4Pm4/7QqgJhSr/7bVM8WHu5R+8ksX4l+Kes7QPR37U/GLa4yGgpl10DL4icytPOXTAEA4D2HwQmBcUQmBGMDn0H2p2aqO0H8NX68pKnzyz+jgme8srnqdpDlMbuS4jNOMQChsC9rldN2bMmtPuK8lp10Y+N6/Ct9f+C/UZ6NOn4n136Miqnbk2de7JCTGeMHQeYpJvfFl04Cu1Y2ZgPcOMoKbnpzlWK6/qKmbR8WjGcp5y6ACsqIYoU4SC/gOrOtf/cv2EjbJUcFtXpmH3tF5vXE0+Ujsl1d5ydSStmdqgsCHEgqlZCTPV835hR5SININZJEOvoNDzyivprpsi3epntGWJrDvb13FtaoXkqHSYkWfZQ+4efjwe+6wu40x1GOTVc5hRnmaYe7HQi+Qphw7AimqIukUo7j+V1vSTZd4oSwW3zB7eraErorHb034gxTa3Jh7UDSn9Y/iayMzlecKGqCQ9SVdx0j92fTRtCdsRrQN5bRYKC7yCleAJoU1XaL+0gpoQc9eU0Q4DWM/QZnnNSmHVeZFiZS8eXjYELEJBS3lUWtBPTGQ5N8pSoaAM3i2zJK4kU7XEza2uXq2mWzG5ayZpKGwIm/WBL8dHflJrCdMRTTBPJ9g8UFjgFawETwht1k0IFSzm7sGH9JnddhjAeoY2oaYZ2FuTTix37XRZUHVepFjZi4eXDQGLUNBSHjbrJvYTE1nOjbJUcMsg76sFbzr2cuBYbeaWOjJv1K4CFDYErHRXaLOoJM+T7j25mmW8gk4W6MCMLFG3/ipBwlbnEQcptunWc3lN76hkb8GvslXn2TGRYmUvHl42BCxCQUt5QK/y/C/ZT4qFy6FRlgpTj8USZEqSsO/O2Hzf1HdUX04/qb+0k8jK4YymeaCZkrvJRW6mcyhsCFjprtnKE7VHhzwwR96XyUs8F7l1IExuNWFJDdaIEUKbsAfIY990wYrz5IQUF9Ot5/Kam4/ry4p5ble/gsmrOs+4iRQre3EVVFRDwCLAloJAr/L8L9lPim0uh0ZZKngzuhHuuTmp2Wowk7TVlLWurQg3+eiJtGqgsCFgpUOzleQvvmUcgEJYUk/fK76b3OsQIcUKxcV067lZmtB5L1Ks7MVVUFENAYsAHYBAr2DySul+UmyzfFWX14S5e5FiZS+u5tcoS4JuX6B6fcFSl0iTjL251iSGuqlaKulbpczzzT6NQ53WSZ7x3cxaQNaDoc4ylNihW6DTOoldxex+bdoooU7TJeHobhvE9e8p9WmlXqrUcPJ5i1Knk882ktx1XnQ6qqOz8JK7jkZX3hg9/9vx8VdHeTqtk9jc5fP2fVhnuUme+9X49S9chLYwkpH1Stri7qPR6Vi3jngS6jRX8ulkdLfx9NSbLdixoKiUUEJJm0rClVRbEhaDEkoo6QwJIYSQFrNaqWur4SL/ZlneptR5vmzuvM1xScKV/v2m0ZSyE0JawnVKzSr1cBJm5zrFnFTqKl82d04mwbgk4W7/ftNoStkJIS3BnVZs3F0H2bhEjuesMry5Ca5HoE0InOlg7lCYl3uo6WYEMyWELBrumLxPqUsCoY2fTBYXZqFhVxkXJndPKXVHEtmZCK/OrkfOydrx4iHwLswdCuFqCGra8hqFq6pxQsji86BSjyfD0v3/CDiPnExCsj2oJrwpiZ9JpieJnJ0IH1Hq8iTiapqMZFLYmMwOdlIIOVmd6UywwjD3PGFJ5y3d9VwihCw0vclYlZH57uSfuGYSYd7wDoXw8gqlbq/OLKeqt2xGtyp1v6MccrI605lghTYLuL6DQui8u1wyvFepb2UlhJBF5uXJfHR5deIIRzIc3sVz05nElJlZzlRvdSeR2STc5iiHeNbmI4TOhxTfJYQsAnAkyzxyYxKuchY+ULP48piT/HgyK12v1FnJ/7OaBRoEzhRzE5acm8SxE76MELKoPJmM20uTMFsdwL3VBc5JZ+EDx7zBGhlOLh9LgjFYJrnHyWRhZVy6NFnZGWGYBAphiaCmpfguIWQR6KtOQ7M5awc7bgsmF2vknOzlQ+WSe5x0XJpN/rJmhGESKIQlgpqW4ruEkKXCKmfZMstxSwhZIsClByGEEEIIIYQQQgghhBBCCCGkHv8PnJzSnlKlkQwAAAAASUVORK5CYII=;" vertex="1" parent="1">
            <mxGeometry x="230" y="200" width="393" height="195" as="geometry" />
          </mxCell>
        </UserObject>
      </root>
    </mxGraphModel>
  </diagram>
</mxfile>
